<?xml version="1.0" encoding="UTF-8" standalone="no"?>
<!DOCTYPE svg PUBLIC "-//W3C//DTD SVG 1.1//EN" "http://www.w3.org/Graphics/SVG/1.1/DTD/svg11.dtd">
<svg width="100%" height="100%" viewBox="0 0 300 300" version="1.1" xmlns="http://www.w3.org/2000/svg" xmlns:xlink="http://www.w3.org/1999/xlink" xml:space="preserve" xmlns:serif="http://www.serif.com/" style="fill-rule:evenodd;clip-rule:evenodd;stroke-linejoin:round;stroke-miterlimit:2;">
    <path d="M271.607,155.4C271.593,177.993 248.513,196.13 246.877,192.747C230.277,158.363 215.373,162.633 201.64,169.807C189.807,175.98 188.49,197.03 191.28,198.203C193.057,198.943 220.853,197.993 220.853,197.993C220.677,201.39 220.37,218.217 220.37,218.217C212.443,218.217 172.927,218.363 172.927,218.363C172.127,247.833 202.007,236.883 201.69,239.97C198.913,267.007 173.003,253.243 173.003,253.243C169.517,286.577 151.127,285.65 151.127,285.65C151.127,285.65 133.053,286.577 129.567,253.243C129.567,253.243 103.81,267.01 101.033,239.97C100.717,236.883 130.683,247.847 129.883,218.363C129.883,218.363 90.403,218.217 82.477,218.217C82.477,218.217 82.197,201.39 82.007,197.993C82.007,197.993 109.83,198.943 111.593,198.203C114.397,197.03 113.077,175.98 101.243,169.807C87.497,162.633 72.607,158.363 56.007,192.747C54.37,196.13 31.29,177.993 31.277,155.4C31.263,137.4 50.757,114.003 72.177,114.967C85.657,115.57 99.923,120.213 109.27,131.017C125.91,150.25 127.127,181.117 128.71,199.017L139.287,199.227C140.973,187.287 135.203,154.03 134.95,147.373C134.417,133.793 112.857,117.743 110.537,83.483C108.16,48.373 142.883,17.743 151.127,15.273C158.349,17.283 182.47,37.933 189.928,64.47C190.707,67.243 191.305,70.08 191.682,72.967C192.132,76.41 192.268,79.924 192.027,83.483C189.707,117.743 168.463,133.793 167.93,147.373C167.677,154.027 161.907,187.287 163.593,199.227L174.17,199.017C175.757,181.117 176.973,150.25 193.61,131.017C202.957,120.213 217.223,115.573 230.703,114.967C252.127,114.003 271.62,137.4 271.607,155.4Z" style="fill:rgb(19,62,246);fill-rule:nonzero;"/>
</svg>
