<?xml version="1.0" encoding="UTF-8" standalone="no"?>
<!-- Created with Inkscape (http://www.inkscape.org/) -->

<svg
   xmlns:dc="http://purl.org/dc/elements/1.1/"
   xmlns:cc="http://creativecommons.org/ns#"
   xmlns:rdf="http://www.w3.org/1999/02/22-rdf-syntax-ns#"
   xmlns:svg="http://www.w3.org/2000/svg"
   xmlns="http://www.w3.org/2000/svg"
   xmlns:sodipodi="http://sodipodi.sourceforge.net/DTD/sodipodi-0.dtd"
   xmlns:inkscape="http://www.inkscape.org/namespaces/inkscape"
   width="199.56897"
   height="199.56897"
   id="svg15144"
   version="1.1"
   inkscape:version="0.47 r22583"
   sodipodi:docname="HSBlue fleur-de-lis.svg">
  <defs
     id="defs15146">
    <inkscape:perspective
       sodipodi:type="inkscape:persp3d"
       inkscape:vp_x="0 : 526.18109 : 1"
       inkscape:vp_y="0 : 1000 : 0"
       inkscape:vp_z="744.09448 : 526.18109 : 1"
       inkscape:persp3d-origin="372.04724 : 350.78739 : 1"
       id="perspective15152" />
    <inkscape:perspective
       id="perspective15162"
       inkscape:persp3d-origin="0.5 : 0.33333333 : 1"
       inkscape:vp_z="1 : 0.5 : 1"
       inkscape:vp_y="0 : 1000 : 0"
       inkscape:vp_x="0 : 0.5 : 1"
       sodipodi:type="inkscape:persp3d" />
    <filter
       id="filter15682"
       inkscape:label="Black Light"
       inkscape:menu="Color"
       inkscape:menu-tooltip="Light areas turn to black"
       x="0"
       width="1"
       y="0"
       height="1"
       color-interpolation-filters="sRGB">
      <feColorMatrix
         id="feColorMatrix15684"
         type="luminanceToAlpha"
         result="result2" />
      <feComposite
         id="feComposite15686"
         in2="SourceGraphic"
         operator="arithmetic"
         in="result2"
         k3="2"
         result="result4"
         k1="0"
         k2="0"
         k4="0" />
      <feBlend
         id="feBlend15688"
         in2="result2"
         in="result4"
         mode="multiply"
         result="result3" />
      <feComposite
         id="feComposite15690"
         in2="SourceGraphic"
         operator="in"
         in="result3" />
    </filter>
    <inkscape:perspective
       id="perspective15702"
       inkscape:persp3d-origin="0.5 : 0.33333333 : 1"
       inkscape:vp_z="1 : 0.5 : 1"
       inkscape:vp_y="0 : 1000 : 0"
       inkscape:vp_x="0 : 0.5 : 1"
       sodipodi:type="inkscape:persp3d" />
    <inkscape:perspective
       id="perspective15716"
       inkscape:persp3d-origin="0.5 : 0.33333333 : 1"
       inkscape:vp_z="1 : 0.5 : 1"
       inkscape:vp_y="0 : 1000 : 0"
       inkscape:vp_x="0 : 0.5 : 1"
       sodipodi:type="inkscape:persp3d" />
  </defs>
  <sodipodi:namedview
     id="base"
     pagecolor="#ffffff"
     bordercolor="#666666"
     borderopacity="1.0"
     inkscape:pageopacity="0.0"
     inkscape:pageshadow="2"
     inkscape:zoom="2.32"
     inkscape:cx="98.245589"
     inkscape:cy="99.382089"
     inkscape:document-units="px"
     inkscape:current-layer="layer1"
     showgrid="false"
     inkscape:window-width="1265"
     inkscape:window-height="741"
     inkscape:window-x="21"
     inkscape:window-y="20"
     inkscape:window-maximized="0">
    <inkscape:grid
       type="xygrid"
       id="grid15752"
       empspacing="5"
       visible="true"
       enabled="true"
       snapvisiblegridlinesonly="true" />
  </sodipodi:namedview>
  <metadata
     id="metadata15149">
    <rdf:RDF>
      <cc:Work
         rdf:about="">
        <dc:format>image/svg+xml</dc:format>
        <dc:type
           rdf:resource="http://purl.org/dc/dcmitype/StillImage" />
        <dc:title></dc:title>
      </cc:Work>
    </rdf:RDF>
  </metadata>
  <g
     inkscape:label="Calque 1"
     inkscape:groupmode="layer"
     id="layer1"
     transform="translate(-275,-432.53461)">
    <path
       sodipodi:type="arc"
       style="fill:#ffffff;stroke:#e6e6e6;stroke-opacity:1"
       id="path15168"
       sodipodi:cx="375"
       sodipodi:cy="532.10358"
       sodipodi:rx="98.275864"
       sodipodi:ry="99.568962"
       d="m 473.27586,532.10358 c 0,54.99042 -43.9996,99.56896 -98.27586,99.56896 -54.27626,0 -98.27586,-44.57854 -98.27586,-99.56896 0,-54.99042 43.9996,-99.56897 98.27586,-99.56897 54.27626,0 98.27586,44.57855 98.27586,99.56897 z"
       transform="matrix(0.98293967,0,0,0.98293967,6.3976242,9.5088976)" />
    <path
       transform="matrix(0.78582971,0,0,0.78582971,80.401268,114.48319)"
       d="m 473.27586,532.10358 c 0,54.99042 -43.9996,99.56896 -98.27586,99.56896 -54.27626,0 -98.27586,-44.57854 -98.27586,-99.56896 0,-54.99042 43.9996,-99.56897 98.27586,-99.56897 54.27626,0 98.27586,44.57855 98.27586,99.56897 z"
       sodipodi:ry="99.568962"
       sodipodi:rx="98.275864"
       sodipodi:cy="532.10358"
       sodipodi:cx="375"
       id="path15170"
       style="fill:none;stroke:#e6e6e6;stroke-width:12.72540378999999966;stroke-miterlimit:4;stroke-opacity:1;stroke-dasharray:none"
       sodipodi:type="arc" />
    <g
       id="g15748"
       transform="matrix(0.53424382,0,0,0.53424382,175.59585,249.28089)">
      <path
         style="fill:#2854a2"
         d="m 369.23642,654.54635 c -1.68302,-2.65367 -3.52843,-6.62485 -4.10091,-8.82485 -1.82675,-7.02013 -3.17345,-8.87377 -7.12603,-9.80853 -3.46116,-0.81855 -10.76391,-7.33202 -10.76391,-9.60055 0,-0.49682 2.1375,-2.44056 4.75,-4.31943 4.92805,-3.54417 9.45686,-10.53389 10.73123,-16.56245 1.25341,-5.92939 0.37047,-6.20904 -19.60368,-6.20904 l -17.87755,0 0,-8.96107 0,-8.96106 8.75,-0.28894 8.75,-0.28893 -0.22157,-5.29152 c -0.37609,-8.98154 -5.67964,-18.24573 -12.47877,-21.79776 -4.05199,-2.11686 -12.65542,-1.79603 -16.61769,0.61969 -4.7869,2.91848 -7.51993,9.62066 -6.97804,17.1122 0.27041,3.73828 0.0388,5.8571 -0.64012,5.8566 -3.43564,-0.003 -13.59674,-6.24198 -17.82628,-10.94625 -10.79209,-12.0034 -10.26932,-31.74496 1.17213,-44.26373 24.32206,-26.61222 59.4892,-0.45614 63.56864,47.28012 1.07039,12.52532 0.69789,11.93065 7.47336,11.93065 7.25674,0 7.45703,-0.40697 6.53061,-13.26943 -1.32905,-18.45243 -4.16198,-28.70744 -20.09176,-72.73057 -3.56956,-9.86473 -3.79953,-11.19577 -3.80117,-22 -10e-4,-8.89721 0.50788,-13.31064 2.24994,-19.5 4.13688,-14.69788 13.24876,-30.73379 25.56977,-45 l 2.59095,-3 2.59095,3 c 7.29064,8.44166 14.99154,19.78912 18.94396,27.91436 6.51778,13.39903 8.76363,22.71071 8.82399,36.58564 0.0473,10.86888 -0.1585,12.07624 -3.74941,22 -15.92978,44.02313 -18.76271,54.27814 -20.09176,72.73057 -0.92642,12.86246 -0.72613,13.26943 6.53061,13.26943 6.77547,0 6.40297,0.59467 7.47336,-11.93065 1.68429,-19.70904 9.28221,-37.91481 20.01215,-47.95213 10.93642,-10.23049 21.708,-12.6032 32.98851,-7.26655 19.94304,9.43476 25.90647,36.4459 11.56745,52.39434 -4.06359,4.51968 -14.29381,10.75171 -17.65362,10.7542 -0.67894,5e-4 -0.91053,-2.11832 -0.64012,-5.8566 0.54188,-7.49154 -2.19114,-14.19372 -6.97804,-17.1122 -3.96228,-2.41572 -12.5657,-2.73655 -16.61769,-0.61969 -6.79913,3.55203 -12.10268,12.81622 -12.47877,21.79776 l -0.22157,5.29152 8.75,0.28893 8.75,0.28894 0,8.96106 0,8.96107 -17.87756,0 c -19.97414,0 -20.85708,0.27965 -19.60367,6.20904 1.27437,6.02856 5.80318,13.01828 10.73123,16.56245 2.6125,1.87887 4.75,3.82261 4.75,4.31943 0,2.30229 -7.38142,8.89001 -10.64767,9.50276 -3.87951,0.7278 -5.82398,3.16691 -6.74987,8.46693 -0.6935,3.96974 -6.42517,14.08526 -8.32701,14.69591 -0.67351,0.21625 -2.60158,-1.778 -4.2846,-4.43167 z"
         id="path15726" />
      <path
         style="fill:#1e4da0"
         d="m 370.31772,654.64323 c -2.52468,-3.70677 -5.98284,-12.66009 -6.0395,-15.63655 -0.0369,-1.93707 -2.91276,-3.78518 -5.89018,-3.78518 -2.26452,0 -7.64938,-4.21013 -9.27868,-7.2545 -0.87117,-1.6278 -0.75371,-2.2276 0.58266,-2.97547 6.75378,-3.77961 12.66814,-12.41177 14.00771,-20.44462 0.99854,-5.98789 -0.11604,-6.32541 -20.88842,-6.32541 l -17.56574,0 0,-8 0,-8 8.98095,0 c 8.64616,0 9.0034,-0.0895 9.58337,-2.40026 0.81341,-3.24089 -2.06425,-14.07073 -5.12794,-19.29851 -1.48694,-2.53727 -4.30649,-5.31288 -7.00119,-6.89208 -3.86354,-2.26418 -5.37001,-2.58191 -10.48686,-2.21179 -10.41987,0.7537 -15.4322,6.60894 -15.44235,18.03927 -0.007,7.70154 0.0168,7.69373 -8.86139,2.9339 -10.91306,-5.85081 -16.22074,-15.84066 -15.43124,-29.0439 0.57731,-9.6546 4.1044,-17.47588 10.36681,-22.98828 6.12077,-5.38771 10.8245,-7.4537 18.08702,-7.94424 5.07644,-0.34288 7.16263,0.0392 11.79551,2.16018 16.33169,7.47689 28.42248,29.95528 30.19996,56.14571 0.33594,4.95 1.05438,9.5625 1.59652,10.25 0.5874,0.74488 3.34658,1.25 6.82809,1.25 7.83552,0 8.04679,-0.50277 6.85082,-16.30293 -1.23569,-16.32497 -4.62132,-29.31312 -15.03995,-57.69707 l -8.25885,-22.5 -0.0506,-12 c -0.0557,-13.19751 1.18145,-19.28259 6.53433,-32.14079 3.56449,-8.56228 12.57191,-22.68311 18.72771,-29.35921 l 4.1493,-4.5 4.1493,4.5 c 6.1558,6.6761 15.16322,20.79693 18.72771,29.35921 5.34428,12.83754 6.58879,18.94774 6.54633,32.14079 l -0.0386,12 -8.27238,22.5 c -10.41955,28.34006 -13.81298,41.34906 -15.05042,57.69707 -1.19597,15.80016 -0.9847,16.30293 6.85082,16.30293 3.48151,0 6.24069,-0.50512 6.82809,-1.25 0.54214,-0.6875 1.26058,-5.3 1.59652,-10.25 1.77748,-26.19043 13.86827,-48.66882 30.19996,-56.14571 18.2712,-8.36483 38.91093,6.38953 40.24934,28.77234 0.7895,13.20324 -4.51818,23.19309 -15.43124,29.0439 -8.87815,4.75983 -8.85455,4.76764 -8.86139,-2.9339 -0.0102,-11.43033 -5.02248,-17.28557 -15.44235,-18.03927 -10.90533,-0.78882 -18.0141,5.68768 -21.598,19.67704 -0.89123,3.4788 -1.34933,7.4052 -1.01799,8.72534 0.57997,2.31079 0.93721,2.40026 9.58337,2.40026 l 8.98095,0 0,8 0,8 -17.56574,0 c -20.77238,0 -21.88696,0.33752 -20.88842,6.32541 1.33957,8.03285 7.25393,16.66501 14.00771,20.44462 1.33637,0.74787 1.45382,1.34767 0.58265,2.97547 -1.62929,3.04437 -7.01415,7.2545 -9.27867,7.2545 -2.97743,0 -5.8533,1.84811 -5.89018,3.78518 -0.0854,4.48424 -6.95848,19.20115 -8.96735,19.20115 -0.275,0 -1.59253,-1.60407 -2.92785,-3.5646 z"
         id="path15724" />
    </g>
  </g>
</svg>
