<?xml version="1.0" encoding="UTF-8" standalone="no"?>
<!DOCTYPE svg PUBLIC "-//W3C//DTD SVG 1.1//EN" "http://www.w3.org/Graphics/SVG/1.1/DTD/svg11.dtd">
<svg width="100%" height="100%" viewBox="0 0 800 800" version="1.1" xmlns="http://www.w3.org/2000/svg" xmlns:xlink="http://www.w3.org/1999/xlink" xml:space="preserve" xmlns:serif="http://www.serif.com/" style="fill-rule:evenodd;clip-rule:evenodd;stroke-linejoin:round;stroke-miterlimit:2;">
    <g transform="matrix(2.44167,0,0,2.44167,400,400)">
        <g id="maple-leaf" transform="matrix(1,0,0,1,-150,-150)">
            <path d="M149.982,0.318L122.346,49.311C121.767,50.154 120.828,50.733 119.853,50.733C119.349,50.733 89.841,34.467 89.841,34.467L107.421,111.345C107.562,111.738 107.562,112.068 107.562,112.464C107.562,115.245 105.276,117.432 102.606,117.432C101.226,117.432 99.966,116.853 99.081,116.022L67.773,79.65L55.791,100.896C55.143,101.67 54.114,102.339 52.977,102.339C52.812,102.339 13.695,94.665 13.695,94.665C13.695,94.665 27.039,136.869 27.039,137.286C27.039,138.621 26.283,139.812 25.176,140.46L8.628,149.937L80.364,206.976C81.03,207.654 81.393,208.539 81.393,209.514C81.393,209.985 73.83,239.352 73.83,239.352C73.83,239.352 137.112,226.248 137.397,226.248C139.764,226.248 141.765,228.285 141.765,230.703L140.451,299.679L159.525,299.679L158.334,230.703C158.334,228.282 160.251,226.248 162.669,226.248C162.921,226.248 226.197,239.352 226.197,239.352C226.197,239.352 218.577,209.985 218.577,209.514C218.577,208.542 218.994,207.654 219.639,206.976L291.372,149.937L274.833,140.46C273.717,139.812 272.994,138.621 272.994,137.286C272.994,136.869 286.314,94.665 286.314,94.665C286.314,94.665 247.251,102.339 247.11,102.339C245.85,102.339 244.911,101.67 244.218,100.896L232.233,79.65L200.973,116.022C200.013,116.853 198.807,117.432 197.418,117.432C194.724,117.432 192.438,115.245 192.438,112.464C192.438,112.071 210.177,34.467 210.177,34.467C210.177,34.467 180.681,50.733 180.21,50.733C179.181,50.733 178.209,50.154 177.705,49.311L149.982,0.318" style="fill:rgb(251,26,26);fill-rule:nonzero;"/>
        </g>
    </g>
</svg>
