<svg xmlns="http://www.w3.org/2000/svg" viewBox="0 0 86 107.5" x="0px" y="0px"><title>Ресурс 55</title><g data-name="Слой 2"><g data-name="Слой 1"><path d="M8.51,13.59A5.11,5.11,0,1,0,3.41,8.48,5.11,5.11,0,0,0,8.51,13.59Zm0-8.51A3.41,3.41,0,1,1,5.11,8.48,3.41,3.41,0,0,1,8.51,5.08Z"/><path d="M7.46,1.76a7,7,0,0,1,5.33,1.42,7,7,0,0,1,2.49,4.53A.85.85,0,0,0,17,7.53a8.72,8.72,0,0,0-3-5.59A8.81,8.81,0,0,0,7.23.08a.85.85,0,1,0,.24,1.68Z"/><path d="M.85,9.34a.85.85,0,0,0,.85-.85A6.71,6.71,0,0,1,3.53,3.86.85.85,0,1,0,2.28,2.7,8.47,8.47,0,0,0,0,8.49.85.85,0,0,0,.85,9.34Z"/><path d="M3.93,13.52a6.87,6.87,0,0,1-1.55-2.08.85.85,0,0,0-1.54.73,8.58,8.58,0,0,0,5.23,4.48A.85.85,0,0,0,6.56,15,6.88,6.88,0,0,1,3.93,13.52Z"/><path d="M16.55,11.28a.85.85,0,0,0-1.61-.54A6.88,6.88,0,0,1,11,14.82a.85.85,0,0,0,.63,1.58,8.63,8.63,0,0,0,4.89-5.12Z"/><path d="M22.92,80.42c-.12,0-.23,0-.35,0A8.57,8.57,0,0,0,7,78.49a6.25,6.25,0,0,0-7,6.23c0,.18,0,.36,0,.53A.87.87,0,0,0,.87,86a.88.88,0,0,0,.85-.92h0c0-.12,0-.24,0-.36a4.55,4.55,0,0,1,5.13-4.54l1.09.13.57-.93a6.84,6.84,0,0,1,5.87-3.31,6.93,6.93,0,0,1,6.59,4.89l.39,1.3,1.35-.09.28,0a3.37,3.37,0,0,1,3.3,3.08h0a.84.84,0,0,0,1.68,0A5.06,5.06,0,0,0,22.92,80.42Z"/><path d="M79.72,71.95A6.31,6.31,0,0,0,79,72a8.57,8.57,0,0,0-15.54,2c-.12,0-.23,0-.35,0a5.06,5.06,0,0,0-5,4.74.84.84,0,0,0,1.68,0h0A3.37,3.37,0,0,1,63,75.63l.28,0,1.35.09.39-1.3a6.93,6.93,0,0,1,6.59-4.89,6.84,6.84,0,0,1,5.87,3.31l.57.93,1.09-.13a4.55,4.55,0,0,1,5.13,4.54c0,.12,0,.24,0,.36h0a.85.85,0,0,0,1.69.17c0-.18,0-.35,0-.53A6.28,6.28,0,0,0,79.72,71.95Z"/><path d="M67.7,57c.77-.81,1.42-3.28-4.29-10.41l2.22-2.27a.85.85,0,0,0,0-1.2L63.51,41a.85.85,0,0,0-1.2,0l-1.93,2c-1.33-1.48-2.88-3.1-4.67-4.9l5.64-4.85c.17-.18,4.16-4.44,1.63-9.69a.81.81,0,0,0-.1-.13.85.85,0,0,0-.45-.49c-5.31-2.42-9.48,1.67-9.71,1.91l-4.66,5.69c-1.83-1.75-3.49-3.26-5-4.56l1.89-1.93a.85.85,0,0,0,0-1.2l-2.07-2a.85.85,0,0,0-1.2,0l-2.17,2.22c-7.3-5.59-9.76-4.88-10.56-4.09a2.12,2.12,0,0,0-.6,1.6C28.41,24.86,39.24,35.24,42.15,38l-5.89,7.43c-1.58-.88-4.65-2.29-6-.85s.93,4.55,2.35,6.11l-1,2.89a.74.74,0,0,0,0,.25.83.83,0,0,0,.13.47l0,.06a.8.8,0,0,0,.08.11l0,0,.39.38a.84.84,0,0,0,.25.16l.08,0a.84.84,0,0,0,.22,0h.07a.84.84,0,0,0,.27,0L36,54c1.59,1.39,4.64,3.67,6.16,2.22s-.1-4.41-1-6l7.33-6C51.22,47,61.85,57.63,66.11,57.61A2.11,2.11,0,0,0,67.7,57ZM62.93,42.84l.89.87-1.5,1.53-.82-1ZM61.48,24.42a6.91,6.91,0,0,1-.75,6.91,27.26,27.26,0,0,0-6.09-5.87A7,7,0,0,1,61.48,24.42Zm-19.2-1.76.85.83L41.75,24.9l-.92-.76Zm-10.73,23c.28-.3,1.94.15,3.71,1.1l-1.71,2.31C32.32,47.65,31.39,46.09,31.55,45.68ZM41,55c-.39.17-1.91-.63-3.52-2l2.3-1.73C40.76,53,41.26,54.68,41,55Zm8.15-12.51A.84.84,0,0,0,48,42.38l-8.49,7-3.84,2.89a.8.8,0,0,0-.06.07l-2,.74.78-2.21,2.77-3.76a.83.83,0,0,0,.1-.2L44,38.39a.85.85,0,0,0-.09-1.15C38.56,32.36,30.09,23.51,30,20.57c0-.26.07-.34.1-.36.78-.78,4.27,1.17,8.73,4.63l0,.07a.83.83,0,0,0,.23.15q1,.78,2,1.65h0c2,1.69,4.2,3.63,6.36,5.71a.85.85,0,0,0,1.25-.07l4.64-5.66a25.73,25.73,0,0,1,6.12,5.9L53.9,37.43a.85.85,0,0,0,0,1.25C56,40.79,58,42.91,59.71,44.9h0Q60.66,46,61.5,47a.82.82,0,0,0,.11.16l0,0c3.55,4.37,5.56,7.79,4.8,8.59,0,0-.1.1-.36.1C63.16,55.92,54.12,47.66,49.12,42.45Z"/><path d="M23.36,27.13l2.37-2.42a.85.85,0,0,0-1.22-1.19l-2.37,2.42a.85.85,0,1,0,1.22,1.19Z"/><circle cx="20.37" cy="28.97" r="0.85" transform="translate(-14.58 23.29) rotate(-45.65)"/><path d="M13.25,36.26a.85.85,0,0,0,1.2,0L18.6,32a.85.85,0,0,0-1.22-1.19l-4.15,4.25A.85.85,0,0,0,13.25,36.26Z"/><path d="M25.16,27.71,18,35a.85.85,0,0,0,1.22,1.19l7.12-7.29a.85.85,0,1,0-1.22-1.19Z"/><path d="M61.53,62.07a.85.85,0,0,0-1.2,0L54.56,68a.85.85,0,1,0,1.22,1.19l5.77-5.9A.85.85,0,0,0,61.53,62.07Z"/><path d="M59.68,57.89,56,61.67a.85.85,0,0,0,1.22,1.19l3.7-3.78a.85.85,0,1,0-1.22-1.19Z"/><path d="M54.8,64.09a.85.85,0,0,0-1.2,0L50.73,67a.85.85,0,1,0,1.22,1.19l2.88-2.94A.85.85,0,0,0,54.8,64.09Z"/><path d="M22.83,53.2a.85.85,0,0,0,1.2,0l4.15-4.25A.85.85,0,0,0,27,47.75L22.81,52A.85.85,0,0,0,22.83,53.2Z"/><path d="M26.35,53.24l-7.12,7.29a.85.85,0,1,0,1.22,1.19l7.12-7.29a.85.85,0,0,0,0-1.2h0A.85.85,0,0,0,26.35,53.24Z"/><path d="M30.1,60.33l-3.7,3.78a.85.85,0,0,0,1.22,1.19l3.7-3.78a.85.85,0,1,0-1.22-1.19Z"/><path d="M36.68,58.43l-2.88,2.94A.85.85,0,1,0,35,62.57l2.88-2.94a.85.85,0,0,0-1.22-1.19Z"/></g></g></svg>